<svg xmlns="http://www.w3.org/2000/svg" xmlns:xlink="http://www.w3.org/1999/xlink" xml:space="preserve" version="1.1" style="shape-rendering:geometricPrecision;text-rendering:geometricPrecision;image-rendering:optimizeQuality;" viewBox="0 0 379 483.75" x="0px" y="0px" fill-rule="evenodd" clip-rule="evenodd"><defs><style type="text/css">
   
    .fil1 {fill:black}
    .fil0 {fill:black;fill-rule:nonzero}
   
  </style></defs><g><path class="fil0" d="M158 309c21,0 39,17 39,39 0,21 -18,39 -39,39 -22,0 -39,-18 -39,-39 0,-22 17,-39 39,-39zm0 20c-11,0 -19,8 -19,19 0,10 8,19 19,19 10,0 19,-9 19,-19 0,-11 -9,-19 -19,-19z"/><path class="fil0" d="M290 309c22,0 39,17 39,39 0,21 -17,39 -39,39 -21,0 -39,-18 -39,-39 0,-22 18,-39 39,-39zm0 20c-10,0 -19,8 -19,19 0,10 9,19 19,19 11,0 19,-9 19,-19 0,-11 -8,-19 -19,-19z"/><path class="fil1" d="M116 247l201 0c16,0 29,-10 33,-26l28 -112c4,-16 -8,-31 -25,-31l-261 0 -6 -42c-3,-21 -21,-36 -41,-36l-35 0c-13,0 -13,20 0,20l35 0c11,0 20,8 21,18l32 222c3,21 20,36 41,36l191 0c13,0 13,-20 0,-20l-191 0c-11,0 -20,-8 -21,-19l-2 -10z"/></g><text x="0" y="402" fill="#000000" font-size="5px" font-weight="bold" font-family="'Helvetica Neue', Helvetica, Arial-Unicode, Arial, Sans-serif">Created by Iconnic</text><text x="0" y="407" fill="#000000" font-size="5px" font-weight="bold" font-family="'Helvetica Neue', Helvetica, Arial-Unicode, Arial, Sans-serif">from the Noun Project</text></svg>