<svg xmlns="http://www.w3.org/2000/svg" xmlns:xlink="http://www.w3.org/1999/xlink" viewBox="0 0 24 30" version="1.1" x="0px" y="0px"><title>bookmark</title><desc>Created with Sketch.</desc><g stroke="none" stroke-width="1" fill="none" fill-rule="evenodd"><path d="M7,3 L17,3 C18.1045695,3 19,3.8954305 19,5 L19,20.2768203 C19,20.8291051 18.5522847,21.2768203 18,21.2768203 C17.8259731,21.2768203 17.6549588,21.231405 17.5038611,21.1450635 L12,18 L6.49613894,21.1450635 C6.01662149,21.4190734 5.40576683,21.2524767 5.13175686,20.7729593 C5.04541532,20.6218616 5,20.4508473 5,20.2768203 L5,5 C5,3.8954305 5.8954305,3 7,3 Z M16.7,5 L7.30000001,5 C7.13431458,5 7,5.13431458 7,5.30000001 L7,18.5536406 L11.7519305,15.8382518 C11.9056469,15.7504139 12.0943531,15.7504139 12.2480695,15.8382518 L17,18.5536406 L17,5.30000001 C17,5.13431458 16.8656854,5 16.7,5 Z M9,7 L15,7 C15.5522847,7 16,7.44771525 16,8 C16,8.55228475 15.5522847,9 15,9 L9,9 C8.44771525,9 8,8.55228475 8,8 C8,7.44771525 8.44771525,7 9,7 Z" fill="#000000" fill-rule="nonzero"/></g><text x="0" y="39" fill="#000000" font-size="5px" font-weight="bold" font-family="'Helvetica Neue', Helvetica, Arial-Unicode, Arial, Sans-serif">Created by Denis Klyuchnikov</text><text x="0" y="44" fill="#000000" font-size="5px" font-weight="bold" font-family="'Helvetica Neue', Helvetica, Arial-Unicode, Arial, Sans-serif">from the Noun Project</text></svg>